<svg width="286" height="284" viewBox="0 0 286 284" fill="none" xmlns="http://www.w3.org/2000/svg">
<g filter="url(#filter0_d_115_14135)">
<path d="M3.71338 3H258.622C269.668 3 278.622 11.9543 278.622 23V277H23.7134C12.6677 277 3.71338 268.046 3.71338 257V3Z" fill="#374151"/>
</g>
<path fill-rule="evenodd" clip-rule="evenodd" d="M121.212 165.049C101.05 147.024 92.801 123.531 104.476 101.588C118.471 75.2866 123.262 114.726 144.752 107.743C166.241 100.759 194.873 118.117 180.229 149.046C166.519 177.999 141.375 183.074 121.212 165.049Z" fill="#5FD788"/>
<path d="M166.234 115.857H122.349C121.186 115.857 120.069 115.355 119.246 114.463C118.423 113.57 117.961 112.358 117.961 111.095V101.572C117.961 100.695 118.616 99.9843 119.424 99.9843H169.159C169.547 99.9843 169.92 100.151 170.194 100.449C170.468 100.747 170.622 101.151 170.622 101.572V111.095C170.622 112.358 170.16 113.57 169.337 114.463C168.514 115.355 167.397 115.857 166.234 115.857H166.234ZM120.886 103.159V111.095C120.886 111.516 121.041 111.92 121.315 112.218C121.589 112.515 121.961 112.683 122.349 112.683H166.234C166.622 112.683 166.994 112.515 167.268 112.218C167.542 111.92 167.696 111.516 167.696 111.095V103.159H120.886Z" fill="#F3F4F6"/>
<path d="M166.234 173H122.349C121.828 172.999 121.346 172.697 121.086 172.206C120.66 171.413 110.647 152.644 110.647 139.666C110.637 135.87 111.587 132.143 113.392 128.891C115.197 125.639 117.789 122.986 120.887 121.221V114.269H123.812V122.205C123.812 122.84 123.464 123.414 122.926 123.665C120.132 125.099 117.771 127.364 116.116 130.197C114.46 133.029 113.579 136.312 113.573 139.666C113.573 150.372 121.317 166.142 123.203 169.825H165.382C167.267 166.142 175.012 150.361 175.012 139.666C175.005 136.31 174.122 133.026 172.465 130.194C170.808 127.361 168.445 125.097 165.65 123.662C165.116 123.41 164.771 122.838 164.772 122.205V114.269H167.697V121.221C170.795 122.986 173.387 125.639 175.192 128.891C176.997 132.143 177.947 135.87 177.937 139.666C177.937 152.643 167.924 171.412 167.498 172.206C167.238 172.697 166.756 172.999 166.235 173L166.234 173Z" fill="#F3F4F6"/>
<path d="M161.845 165.063H126.738C126.123 165.063 125.573 164.646 125.363 164.019C125.129 163.295 119.424 146.201 119.424 138.08C119.44 135.454 120.293 132.914 121.84 130.894C123.387 128.874 125.532 127.498 127.908 127.001C128.004 126.979 128.102 126.968 128.201 126.969H160.383C160.481 126.968 160.579 126.979 160.675 127.001C163.052 127.498 165.196 128.873 166.743 130.894C168.29 132.914 169.144 135.454 169.159 138.08C169.159 146.202 163.455 163.295 163.221 164.019C163.01 164.646 162.461 165.063 161.845 165.063H161.845ZM127.773 161.889H160.811C162.05 158.04 166.233 144.559 166.233 138.079C166.22 136.21 165.616 134.402 164.521 132.958C163.427 131.513 161.91 130.52 160.223 130.143H128.364C126.681 130.53 125.169 131.527 124.076 132.969C122.983 134.411 122.374 136.213 122.349 138.079C122.349 144.559 126.532 158.039 127.771 161.889H127.773Z" fill="#F3F4F6"/>
<path d="M153.068 165.064H135.515C134.707 165.064 134.052 164.353 134.052 163.476V153.952C134.052 153.076 134.707 152.365 135.515 152.365H153.068C153.456 152.365 153.828 152.532 154.103 152.83C154.377 153.128 154.531 153.531 154.531 153.952V163.476C154.531 163.897 154.377 164.301 154.103 164.599C153.828 164.896 153.456 165.064 153.068 165.064ZM136.977 161.889H151.606V155.54H136.977V161.889Z" fill="#F3F4F6"/>
<path d="M144.292 149.19C142.74 149.19 141.252 148.522 140.154 147.331C139.057 146.14 138.44 144.525 138.44 142.841C138.44 139.76 142.408 134.806 143.203 133.845C143.488 133.523 143.881 133.341 144.292 133.341C144.702 133.341 145.096 133.523 145.38 133.845C146.176 134.806 150.143 139.76 150.143 142.841C150.143 144.525 149.526 146.14 148.429 147.331C147.331 148.522 145.843 149.19 144.292 149.19H144.292ZM144.292 137.364C142.739 139.468 141.366 141.83 141.366 142.841C141.366 143.976 141.924 145.024 142.829 145.591C143.734 146.158 144.849 146.158 145.754 145.591C146.66 145.024 147.217 143.976 147.217 142.841C147.217 141.857 145.845 139.477 144.292 137.364Z" fill="#F3F4F6"/>
<path d="M142.829 147.603H145.754V153.952H142.829V147.603Z" fill="#F3F4F6"/>
<path d="M136.977 92.0476H134.052C134.052 91.1555 133.734 90.7778 133.017 89.9956C131.821 88.9468 131.126 87.3673 131.126 85.6984C131.126 84.0295 131.821 82.4502 133.017 81.4013C133.734 80.619 134.052 80.2413 134.052 79.3492C134.052 78.4571 133.734 78.0794 133.017 77.2971C131.835 76.2363 131.143 74.6646 131.126 73H134.052C134.052 73.8922 134.369 74.2698 135.086 75.0521C136.268 76.1129 136.96 77.6846 136.977 79.3492C136.96 81.0138 136.268 82.5855 135.086 83.6463C134.369 84.4287 134.052 84.8063 134.052 85.6984C134.052 86.5905 134.369 86.9683 135.086 87.7505C136.268 88.8113 136.96 90.383 136.977 92.0476Z" fill="#F3F4F6"/>
<path d="M147.217 92.0476H144.291C144.291 91.1555 143.974 90.7778 143.257 89.9956C142.06 88.9468 141.366 87.3673 141.366 85.6984C141.366 84.0295 142.061 82.4502 143.257 81.4013C143.974 80.619 144.291 80.2413 144.291 79.3492C144.291 78.4571 143.974 78.0794 143.257 77.2971C142.075 76.2363 141.383 74.6646 141.366 73H144.291C144.291 73.8922 144.609 74.2698 145.326 75.0521C146.508 76.1129 147.2 77.6846 147.217 79.3492C147.2 81.0138 146.508 82.5855 145.326 83.6463C144.609 84.4287 144.291 84.8063 144.291 85.6984C144.291 86.5905 144.609 86.9683 145.326 87.7505C146.508 88.8113 147.2 90.383 147.217 92.0476Z" fill="#F3F4F6"/>
<path d="M157.457 92.0476H154.531C154.531 91.1555 154.214 90.7778 153.497 89.9956C152.3 88.9468 151.605 87.3673 151.605 85.6984C151.605 84.0295 152.3 82.4502 153.497 81.4013C154.214 80.619 154.531 80.2413 154.531 79.3492C154.531 78.4571 154.214 78.0794 153.497 77.2971C152.315 76.2363 151.622 74.6646 151.605 73H154.531C154.531 73.8922 154.848 74.2698 155.566 75.0521C156.748 76.1129 157.44 77.6846 157.457 79.3492C157.44 81.0138 156.747 82.5855 155.566 83.6463C154.848 84.4287 154.531 84.8063 154.531 85.6984C154.531 86.5905 154.848 86.9683 155.566 87.7505C156.748 88.8113 157.44 90.383 157.457 92.0476Z" fill="#F3F4F6"/>
<path d="M119.424 106.333H164.771V109.508H119.424V106.333Z" fill="#F3F4F6"/>
<path d="M96.0469 211H97.8828L98.9219 207.953H103.266L104.297 211H106.133L102.039 199.727H100.148L96.0469 211ZM101.078 201.594H101.109L102.789 206.547H99.3906L101.078 201.594ZM107.18 211H108.867V206.102C108.867 204.875 109.539 204.164 110.625 204.164C110.953 204.164 111.25 204.203 111.383 204.258V202.688C111.25 202.664 111.039 202.625 110.797 202.625C109.859 202.625 109.172 203.227 108.906 204.188H108.867V202.781H107.18V211ZM115.602 211.164C117.953 211.164 119.5 209.539 119.5 206.891V206.875C119.5 204.242 117.938 202.625 115.594 202.625C113.258 202.625 111.703 204.25 111.703 206.875V206.891C111.703 209.531 113.242 211.164 115.602 211.164ZM115.609 209.75C114.289 209.75 113.43 208.711 113.43 206.891V206.875C113.43 205.078 114.297 204.039 115.594 204.039C116.914 204.039 117.773 205.078 117.773 206.875V206.891C117.773 208.703 116.93 209.75 115.609 209.75ZM120.805 211H122.492V205.922C122.492 204.859 123.203 204.07 124.203 204.07C125.156 204.07 125.758 204.68 125.758 205.633V211H127.414V205.859C127.414 204.82 128.109 204.07 129.109 204.07C130.109 204.07 130.68 204.688 130.68 205.758V211H132.375V205.352C132.375 203.703 131.312 202.625 129.688 202.625C128.516 202.625 127.547 203.242 127.125 204.242H127.086C126.758 203.211 125.93 202.625 124.797 202.625C123.719 202.625 122.883 203.195 122.531 204.055H122.492V202.781H120.805V211ZM136.422 211.148C137.508 211.148 138.461 210.586 138.938 209.703H138.969V211H140.664V205.336C140.664 203.688 139.391 202.625 137.383 202.625C135.359 202.625 134.133 203.711 134.016 205.125L134.008 205.211H135.602L135.617 205.141C135.758 204.484 136.359 204.023 137.336 204.023C138.383 204.023 138.969 204.57 138.969 205.477V206.094L136.734 206.227C134.789 206.344 133.68 207.219 133.68 208.648V208.664C133.68 210.141 134.781 211.148 136.422 211.148ZM135.383 208.625V208.609C135.383 207.914 135.945 207.469 136.961 207.406L138.969 207.281V207.922C138.969 208.992 138.07 209.797 136.883 209.797C135.977 209.797 135.383 209.344 135.383 208.625ZM145.188 211.164C145.531 211.164 145.852 211.125 146.047 211.094V209.789C145.922 209.805 145.773 209.82 145.594 209.82C144.883 209.82 144.508 209.57 144.508 208.734V204.125H146.047V202.781H144.508V200.641H142.781V202.781H141.602V204.125H142.781V208.836C142.781 210.477 143.562 211.164 145.188 211.164ZM147.508 211H149.195V206.242C149.195 204.961 149.969 204.07 151.133 204.07C152.32 204.07 153.008 204.883 153.008 206.242V211H154.695V205.922C154.695 203.938 153.539 202.625 151.781 202.625C150.555 202.625 149.672 203.18 149.234 204.133H149.195V199.727H147.508V211ZM159.844 211.164C161.836 211.164 163.102 209.977 163.367 208.672L163.383 208.586H161.781L161.758 208.648C161.547 209.266 160.883 209.781 159.883 209.781C158.539 209.781 157.688 208.875 157.656 207.32H163.477V206.75C163.477 204.281 162.062 202.625 159.758 202.625C157.453 202.625 155.969 204.344 155.969 206.914V206.922C155.969 209.516 157.43 211.164 159.844 211.164ZM159.766 204.008C160.867 204.008 161.664 204.703 161.805 206.125H157.68C157.828 204.75 158.672 204.008 159.766 204.008ZM164.789 211H166.477V206.102C166.477 204.875 167.148 204.164 168.234 204.164C168.562 204.164 168.859 204.203 168.992 204.258V202.688C168.859 202.664 168.648 202.625 168.406 202.625C167.469 202.625 166.781 203.227 166.516 204.188H166.477V202.781H164.789V211ZM172.281 211.148C173.367 211.148 174.32 210.586 174.797 209.703H174.828V211H176.523V205.336C176.523 203.688 175.25 202.625 173.242 202.625C171.219 202.625 169.992 203.711 169.875 205.125L169.867 205.211H171.461L171.477 205.141C171.617 204.484 172.219 204.023 173.195 204.023C174.242 204.023 174.828 204.57 174.828 205.477V206.094L172.594 206.227C170.648 206.344 169.539 207.219 169.539 208.648V208.664C169.539 210.141 170.641 211.148 172.281 211.148ZM171.242 208.625V208.609C171.242 207.914 171.805 207.469 172.82 207.406L174.828 207.281V207.922C174.828 208.992 173.93 209.797 172.742 209.797C171.836 209.797 171.242 209.344 171.242 208.625ZM178.164 213.734H179.852V209.617H179.891C180.375 210.57 181.32 211.164 182.484 211.164C184.547 211.164 185.898 209.516 185.898 206.898V206.891C185.898 204.266 184.555 202.625 182.461 202.625C181.289 202.625 180.383 203.219 179.891 204.195H179.852V202.781H178.164V213.734ZM182.023 209.711C180.75 209.711 179.844 208.602 179.844 206.898V206.891C179.844 205.18 180.742 204.07 182.023 204.07C183.344 204.07 184.18 205.141 184.18 206.891V206.898C184.18 208.633 183.352 209.711 182.023 209.711ZM187.867 213.742C189.477 213.742 190.336 213.086 190.945 211.383L194.008 202.781H192.227L190.156 209.469H190.102L188.031 202.781H186.203L189.195 211.008L189.055 211.398C188.773 212.195 188.336 212.406 187.539 212.406C187.312 212.406 187.117 212.375 186.984 212.344V213.664C187.188 213.703 187.539 213.742 187.867 213.742Z" fill="#5FD788"/>
<defs>
<filter id="filter0_d_115_14135" x="0.713379" y="0" width="284.909" height="284" filterUnits="userSpaceOnUse" color-interpolation-filters="sRGB">
<feFlood flood-opacity="0" result="BackgroundImageFix"/>
<feColorMatrix in="SourceAlpha" type="matrix" values="0 0 0 0 0 0 0 0 0 0 0 0 0 0 0 0 0 0 127 0" result="hardAlpha"/>
<feOffset dx="2" dy="2"/>
<feGaussianBlur stdDeviation="2.5"/>
<feComposite in2="hardAlpha" operator="out"/>
<feColorMatrix type="matrix" values="0 0 0 0 0 0 0 0 0 0 0 0 0 0 0 0 0 0 0.15 0"/>
<feBlend mode="normal" in2="BackgroundImageFix" result="effect1_dropShadow_115_14135"/>
<feBlend mode="normal" in="SourceGraphic" in2="effect1_dropShadow_115_14135" result="shape"/>
</filter>
</defs>
</svg>
