<svg width="285" height="284" viewBox="0 0 285 284" fill="none" xmlns="http://www.w3.org/2000/svg">
<g filter="url(#filter0_d_115_14150)">
<path d="M3.86035 3H257.762C268.808 3 277.762 11.9543 277.762 23V277H23.8603C12.8146 277 3.86035 268.046 3.86035 257V3Z" fill="#5FD788"/>
</g>
<path fill-rule="evenodd" clip-rule="evenodd" d="M122.212 169.049C102.05 151.024 93.801 127.531 105.476 105.588C119.471 79.2866 124.262 118.726 145.752 111.743C167.241 104.759 195.873 122.117 181.229 153.046C167.519 181.999 142.375 187.074 122.212 169.049Z" fill="white"/>
<path d="M172.402 136.678H166.69C165.954 136.678 165.357 136.03 165.357 135.232V128.001C165.357 125.494 167.236 123.455 169.546 123.455C171.856 123.455 173.735 125.494 173.735 128.001V135.232C173.735 136.03 173.138 136.678 172.402 136.678H172.402ZM168.023 133.786H171.069V128.001C171.069 127.089 170.386 126.348 169.546 126.348C168.706 126.348 168.023 127.089 168.023 128.001V133.786Z" fill="#424B25"/>
<path d="M139.082 178H139.081L138.879 177.999C131.534 177.943 124.602 174.794 119.36 169.134C114.117 163.474 111.182 155.967 111.095 147.998C110.979 137.411 115.826 127.691 124.063 121.998C129.056 118.546 132.037 112.681 132.037 106.307C132.037 105.509 132.634 104.861 133.37 104.861H144.794C145.53 104.861 146.127 105.509 146.127 106.307C146.127 112.694 149.093 118.549 154.06 121.969C158.508 125.032 162.058 129.368 164.332 134.514C164.443 134.725 164.507 134.971 164.507 135.232C164.507 135.999 163.958 136.626 163.263 136.675L163.264 139.984H165.122C165.748 139.984 166.291 140.458 166.424 141.122C166.473 141.366 166.522 141.61 166.564 141.856C166.635 142.257 166.547 142.671 166.322 142.997L161.36 150.177V165.522C161.36 165.847 161.259 166.163 161.073 166.418C155.726 173.778 147.71 178 139.083 178L139.082 178ZM134.658 107.752C134.24 114.553 130.881 120.714 125.495 124.436C118.042 129.588 113.654 138.383 113.76 147.964C113.923 162.825 125.199 175.001 138.897 175.107L139.081 175.107C146.735 175.107 153.856 171.435 158.693 165.014V149.694C158.693 149.382 158.786 149.077 158.96 148.827L163.073 142.876H161.93C161.194 142.876 160.597 142.228 160.597 141.43V135.232C160.597 134.764 160.801 134.349 161.119 134.085C159.069 130.162 156.163 126.844 152.631 124.412C147.266 120.718 143.921 114.567 143.504 107.753L134.658 107.752Z" fill="#424B25"/>
<path d="M173.925 178H165.167C161.597 178 158.693 174.848 158.693 170.975V149.694C158.693 148.895 159.29 148.247 160.026 148.247H179.067C179.803 148.247 180.4 148.895 180.4 149.694V170.975C180.4 174.848 177.495 178 173.926 178H173.925ZM161.358 151.14V170.975C161.358 173.253 163.067 175.107 165.167 175.107H173.925C176.025 175.107 177.733 173.253 177.733 170.975V151.14H161.358Z" fill="#424B25"/>
<path d="M179.066 151.14H160.025C159.52 151.14 159.058 150.831 158.833 150.341C158.607 149.851 158.656 149.265 158.958 148.826L164.67 140.562C164.922 140.198 165.317 139.983 165.737 139.983H173.353C173.772 139.983 174.168 140.197 174.419 140.562L180.131 148.826C180.434 149.265 180.483 149.851 180.257 150.341C180.031 150.831 179.569 151.14 179.065 151.14H179.066ZM162.691 148.248H176.4L172.688 142.876H166.404L162.691 148.248Z" fill="#424B25"/>
<path d="M177.163 142.876H161.931C161.195 142.876 160.598 142.228 160.598 141.43V135.232C160.598 134.433 161.195 133.785 161.931 133.785H177.163C177.899 133.785 178.496 134.433 178.496 135.232V141.43C178.496 142.228 177.899 142.876 177.163 142.876ZM163.264 139.984H175.831V136.678H163.264V139.984Z" fill="#424B25"/>
<path d="M186.682 178H100.999C100.264 178 99.6665 177.352 99.6665 176.554C99.6665 175.755 100.264 175.107 100.999 175.107H186.682C187.418 175.107 188.015 175.755 188.015 176.554C188.015 177.352 187.418 178 186.682 178Z" fill="#424B25"/>
<path d="M142.889 107.752H135.273C134.537 107.752 133.94 107.104 133.94 106.306V99.8964C132.705 100.962 131.167 101.554 129.561 101.554C127.656 101.554 125.88 100.742 124.563 99.2973C124.016 99.4242 123.459 99.4877 122.897 99.4877C118.487 99.4877 114.9 95.5954 114.9 90.81C114.9 86.0246 118.487 82.1324 122.897 82.1324C124.769 82.1324 126.574 82.8555 127.994 84.1283C129.652 81.6106 132.343 80.0662 135.273 80.0662C137.321 80.0662 139.261 80.8114 140.826 82.1596C142.255 79.633 144.832 78 147.65 78C151.247 78 154.291 80.5552 155.295 84.1194C156.571 82.8672 158.254 82.1322 160.026 82.1322C163.91 82.1322 167.071 85.5611 167.071 89.7767C167.071 93.9924 163.91 97.4213 160.026 97.4213C158.766 97.4213 157.561 97.0664 156.502 96.4001C154.972 99.511 151.943 101.553 148.602 101.553C147.052 101.553 145.546 101.117 144.222 100.31V106.305C144.222 107.104 143.625 107.752 142.889 107.752L142.889 107.752ZM136.606 104.86H141.557V97.308C141.557 96.7066 141.9 96.1679 142.418 95.9554C142.937 95.7429 143.523 95.9008 143.889 96.3517C145.083 97.8193 146.8 98.6613 148.602 98.6613C151.4 98.6613 153.886 96.6218 154.647 93.7012C154.777 93.2039 155.141 92.8194 155.603 92.6925C156.065 92.5656 156.554 92.7161 156.886 93.0873C157.718 94.017 158.833 94.5291 160.026 94.5291C162.441 94.5291 164.405 92.3974 164.405 89.7772C164.405 87.1569 162.441 85.0252 160.026 85.0252C158.34 85.0252 156.785 86.0952 156.063 87.7518C155.86 88.2189 155.443 88.5325 154.969 88.5753C154.495 88.6173 154.035 88.3834 153.764 87.9591C153.624 87.7415 153.471 87.5297 153.307 87.3297C153.105 87.0811 152.987 86.7638 152.974 86.4325C152.855 83.326 150.516 80.8932 147.65 80.8932C145.293 80.8932 143.187 82.6073 142.53 85.0622C142.392 85.5824 141.996 85.9742 141.506 86.0783C141.016 86.1823 140.514 85.9801 140.205 85.5558C139.003 83.9059 137.206 82.9592 135.273 82.9592C132.754 82.9592 130.487 84.5855 129.495 87.1018C129.308 87.5792 128.897 87.9105 128.422 87.9703C127.947 88.0308 127.478 87.808 127.195 87.3896C126.193 85.9094 124.586 85.0253 122.897 85.0253C119.957 85.0253 117.566 87.6204 117.566 90.8104C117.566 94.0003 119.957 96.5954 122.897 96.5954C123.474 96.5954 124.046 96.4943 124.594 96.2943C125.135 96.0973 125.732 96.2958 126.078 96.788C126.915 97.9789 128.185 98.6615 129.561 98.6615C130.851 98.6615 132.071 98.0468 132.906 96.9754C133.213 96.5814 133.69 96.3947 134.158 96.4862C134.532 96.5592 134.907 96.5954 135.273 96.5954C136.009 96.5954 136.606 97.2433 136.606 98.0416L136.606 104.86Z" fill="#424B25"/>
<path d="M139.082 169.735C127.848 169.735 118.709 159.818 118.709 147.629C118.709 146.83 119.306 146.182 120.042 146.182C120.778 146.182 121.375 146.83 121.375 147.629C121.375 158.223 129.319 166.843 139.082 166.843C139.818 166.843 140.415 167.491 140.415 168.29C140.415 169.088 139.818 169.736 139.082 169.736L139.082 169.735Z" fill="#424B25"/>
<path d="M139.082 144.942C136.247 144.942 133.941 142.44 133.941 139.364C133.941 136.288 136.247 133.786 139.082 133.786C141.917 133.786 144.223 136.288 144.223 139.364C144.223 142.44 141.917 144.942 139.082 144.942ZM139.082 136.678C137.718 136.678 136.607 137.883 136.607 139.364C136.607 140.845 137.717 142.05 139.082 142.05C140.447 142.05 141.558 140.845 141.558 139.364C141.558 137.883 140.447 136.678 139.082 136.678Z" fill="#424B25"/>
<path d="M147.651 165.602C144.291 165.602 141.558 162.637 141.558 158.991C141.558 155.345 144.291 152.379 147.651 152.379C151.011 152.379 153.744 155.345 153.744 158.991C153.744 162.637 151.011 165.602 147.651 165.602ZM147.651 155.272C145.761 155.272 144.223 156.94 144.223 158.991C144.223 161.042 145.761 162.71 147.651 162.71C149.54 162.71 151.078 161.042 151.078 158.991C151.078 156.94 149.54 155.272 147.651 155.272Z" fill="#424B25"/>
<path d="M179.066 167.669H165.738C165.002 167.669 164.405 167.021 164.405 166.223C164.405 165.424 165.002 164.776 165.738 164.776H179.066C179.802 164.776 180.399 165.424 180.399 166.223C180.399 167.021 179.802 167.669 179.066 167.669Z" fill="#424B25"/>
<path d="M111.242 211H115.359C118.734 211 120.719 208.906 120.719 205.336V205.32C120.719 201.758 118.719 199.727 115.359 199.727H111.242V211ZM113.258 209.297V201.43H115.148C117.391 201.43 118.664 202.812 118.664 205.328V205.344C118.664 207.914 117.414 209.297 115.148 209.297H113.258ZM123.156 201.531C123.766 201.531 124.234 201.047 124.234 200.469C124.234 199.875 123.766 199.398 123.156 199.398C122.547 199.398 122.07 199.875 122.07 200.469C122.07 201.047 122.547 201.531 123.156 201.531ZM122.18 211H124.125V202.719H122.18V211ZM126.32 211H128.266V204.219H129.891V202.719H128.227V201.984C128.227 201.312 128.578 200.961 129.336 200.961C129.547 200.961 129.766 200.977 129.922 201V199.641C129.68 199.594 129.266 199.562 128.883 199.562C127.086 199.562 126.32 200.312 126.32 201.93V202.719H125.188V204.219H126.32V211ZM131.711 211H133.656V204.219H135.281V202.719H133.617V201.984C133.617 201.312 133.969 200.961 134.727 200.961C134.938 200.961 135.156 200.977 135.312 201V199.641C135.07 199.594 134.656 199.562 134.273 199.562C132.477 199.562 131.711 200.312 131.711 201.93V202.719H130.578V204.219H131.711V211ZM139.383 211.164C140.633 211.164 141.484 210.586 141.914 209.703H141.953V211H143.898V202.719H141.953V207.516C141.953 208.719 141.242 209.523 140.125 209.523C139.016 209.523 138.469 208.859 138.469 207.688V202.719H136.523V208.07C136.523 209.992 137.562 211.164 139.383 211.164ZM148.734 211.164C150.766 211.164 152.211 210.117 152.211 208.555V208.547C152.211 207.344 151.547 206.672 149.836 206.289L148.453 205.984C147.594 205.789 147.273 205.477 147.273 205V204.992C147.273 204.383 147.812 203.984 148.672 203.984C149.578 203.984 150.109 204.469 150.195 205.133L150.203 205.195H152.016L152.008 205.109C151.938 203.68 150.734 202.547 148.672 202.547C146.672 202.547 145.352 203.57 145.352 205.086V205.094C145.352 206.32 146.148 207.094 147.734 207.445L149.109 207.75C149.969 207.945 150.258 208.227 150.258 208.727V208.734C150.258 209.344 149.688 209.727 148.742 209.727C147.758 209.727 147.219 209.305 147.07 208.594L147.055 208.523H145.141L145.148 208.594C145.32 210.133 146.562 211.164 148.734 211.164ZM157.094 211.164C159.258 211.164 160.477 209.883 160.734 208.609L160.758 208.523H158.938L158.922 208.578C158.734 209.133 158.102 209.648 157.133 209.648C155.867 209.648 155.07 208.789 155.039 207.336H160.836V206.711C160.836 204.211 159.367 202.547 157 202.547C154.633 202.547 153.109 204.266 153.109 206.875V206.883C153.109 209.516 154.609 211.164 157.094 211.164ZM157.023 204.07C158.055 204.07 158.805 204.727 158.945 206.039H155.062C155.219 204.766 155.992 204.07 157.023 204.07ZM162.094 211H164.039V206.195C164.039 204.969 164.703 204.273 165.805 204.273C166.133 204.273 166.43 204.32 166.594 204.383V202.625C166.445 202.586 166.219 202.547 165.977 202.547C165.023 202.547 164.336 203.148 164.078 204.148H164.039V202.719H162.094V211ZM170.828 211.164C172.859 211.164 174.305 210.117 174.305 208.555V208.547C174.305 207.344 173.641 206.672 171.93 206.289L170.547 205.984C169.688 205.789 169.367 205.477 169.367 205V204.992C169.367 204.383 169.906 203.984 170.766 203.984C171.672 203.984 172.203 204.469 172.289 205.133L172.297 205.195H174.109L174.102 205.109C174.031 203.68 172.828 202.547 170.766 202.547C168.766 202.547 167.445 203.57 167.445 205.086V205.094C167.445 206.32 168.242 207.094 169.828 207.445L171.203 207.75C172.062 207.945 172.352 208.227 172.352 208.727V208.734C172.352 209.344 171.781 209.727 170.836 209.727C169.852 209.727 169.312 209.305 169.164 208.594L169.148 208.523H167.234L167.242 208.594C167.414 210.133 168.656 211.164 170.828 211.164Z" fill="white"/>
<defs>
<filter id="filter0_d_115_14150" x="0.860352" y="0" width="283.902" height="284" filterUnits="userSpaceOnUse" color-interpolation-filters="sRGB">
<feFlood flood-opacity="0" result="BackgroundImageFix"/>
<feColorMatrix in="SourceAlpha" type="matrix" values="0 0 0 0 0 0 0 0 0 0 0 0 0 0 0 0 0 0 127 0" result="hardAlpha"/>
<feOffset dx="2" dy="2"/>
<feGaussianBlur stdDeviation="2.5"/>
<feComposite in2="hardAlpha" operator="out"/>
<feColorMatrix type="matrix" values="0 0 0 0 0 0 0 0 0 0 0 0 0 0 0 0 0 0 0.15 0"/>
<feBlend mode="normal" in2="BackgroundImageFix" result="effect1_dropShadow_115_14150"/>
<feBlend mode="normal" in="SourceGraphic" in2="effect1_dropShadow_115_14150" result="shape"/>
</filter>
</defs>
</svg>
