<svg width="284" height="284" viewBox="0 0 284 284" fill="none" xmlns="http://www.w3.org/2000/svg">
<g filter="url(#filter0_d_115_14174)">
<path d="M3.0769 3H256.979C268.025 3 276.979 11.9543 276.979 23V277H23.0769C12.0312 277 3.0769 268.046 3.0769 257V3Z" fill="#374151"/>
</g>
<path d="M101.008 203H107.393V201.517H102.771V198.707H107.14V197.278H102.771V194.619H107.393V193.136H101.008V203ZM111.583 203.144C113.36 203.144 114.625 202.228 114.625 200.86V200.854C114.625 199.801 114.044 199.213 112.547 198.878L111.337 198.611C110.585 198.44 110.305 198.167 110.305 197.75V197.743C110.305 197.21 110.776 196.861 111.528 196.861C112.321 196.861 112.786 197.285 112.861 197.866L112.868 197.921H114.454L114.447 197.846C114.386 196.595 113.333 195.604 111.528 195.604C109.778 195.604 108.623 196.499 108.623 197.825V197.832C108.623 198.905 109.32 199.582 110.708 199.89L111.911 200.156C112.663 200.327 112.916 200.573 112.916 201.011V201.018C112.916 201.551 112.417 201.886 111.59 201.886C110.729 201.886 110.257 201.517 110.127 200.895L110.113 200.833H108.438L108.445 200.895C108.596 202.241 109.683 203.144 111.583 203.144ZM118.542 203.144C120.319 203.144 121.584 202.228 121.584 200.86V200.854C121.584 199.801 121.003 199.213 119.506 198.878L118.296 198.611C117.544 198.44 117.264 198.167 117.264 197.75V197.743C117.264 197.21 117.735 196.861 118.487 196.861C119.28 196.861 119.745 197.285 119.82 197.866L119.827 197.921H121.413L121.406 197.846C121.345 196.595 120.292 195.604 118.487 195.604C116.737 195.604 115.582 196.499 115.582 197.825V197.832C115.582 198.905 116.279 199.582 117.667 199.89L118.87 200.156C119.622 200.327 119.875 200.573 119.875 201.011V201.018C119.875 201.551 119.376 201.886 118.549 201.886C117.688 201.886 117.216 201.517 117.086 200.895L117.072 200.833H115.397L115.404 200.895C115.555 202.241 116.642 203.144 118.542 203.144ZM125.856 203.144C127.75 203.144 128.816 202.022 129.042 200.908L129.062 200.833H127.47L127.456 200.881C127.292 201.366 126.738 201.817 125.891 201.817C124.783 201.817 124.086 201.065 124.059 199.794H129.131V199.247C129.131 197.06 127.846 195.604 125.774 195.604C123.703 195.604 122.37 197.107 122.37 199.391V199.397C122.37 201.701 123.683 203.144 125.856 203.144ZM125.795 196.937C126.697 196.937 127.354 197.511 127.477 198.659H124.079C124.216 197.545 124.893 196.937 125.795 196.937ZM130.231 203H131.934V198.796C131.934 197.75 132.556 197.039 133.533 197.039C134.504 197.039 134.982 197.62 134.982 198.652V203H136.685V198.311C136.685 196.629 135.775 195.604 134.183 195.604C133.082 195.604 132.344 196.109 131.968 196.889H131.934V195.754H130.231V203ZM140.745 203.144C141.087 203.144 141.388 203.109 141.586 203.082V201.804C141.47 201.811 141.34 201.831 141.176 201.831C140.554 201.831 140.239 201.605 140.239 200.895V197.066H141.586V195.754H140.239V193.915H138.51V195.754H137.484V197.066H138.51V201.038C138.51 202.528 139.228 203.144 140.745 203.144ZM143.657 194.715C144.19 194.715 144.601 194.291 144.601 193.785C144.601 193.266 144.19 192.849 143.657 192.849C143.124 192.849 142.707 193.266 142.707 193.785C142.707 194.291 143.124 194.715 143.657 194.715ZM142.803 203H144.505V195.754H142.803V203ZM148.094 203.123C149.051 203.123 149.857 202.645 150.274 201.886H150.315V203H152.018V198.017C152.018 196.561 150.849 195.604 149.037 195.604C147.198 195.604 146.084 196.567 145.981 197.853L145.975 197.935H147.554L147.567 197.873C147.677 197.34 148.169 196.964 148.976 196.964C149.837 196.964 150.315 197.408 150.315 198.14V198.639L148.422 198.755C146.665 198.864 145.667 199.637 145.667 200.922V200.936C145.667 202.228 146.645 203.123 148.094 203.123ZM147.362 200.867V200.86C147.362 200.286 147.82 199.924 148.661 199.869L150.315 199.767V200.313C150.315 201.175 149.577 201.824 148.6 201.824C147.854 201.824 147.362 201.462 147.362 200.867ZM153.439 203H155.142V193.136H153.439V203ZM162.6 203.144C164.726 203.144 166.106 201.729 166.106 199.377V199.363C166.106 197.025 164.705 195.604 162.593 195.604C160.487 195.604 159.093 197.039 159.093 199.363V199.377C159.093 201.722 160.467 203.144 162.6 203.144ZM162.606 201.77C161.52 201.77 160.829 200.901 160.829 199.377V199.363C160.829 197.859 161.533 196.984 162.593 196.984C163.673 196.984 164.37 197.853 164.37 199.363V199.377C164.37 200.895 163.68 201.77 162.606 201.77ZM168.103 194.715C168.636 194.715 169.046 194.291 169.046 193.785C169.046 193.266 168.636 192.849 168.103 192.849C167.569 192.849 167.152 193.266 167.152 193.785C167.152 194.291 167.569 194.715 168.103 194.715ZM167.248 203H168.95V195.754H167.248V203ZM170.447 203H172.149V193.136H170.447V203ZM176.429 203.144C178.206 203.144 179.471 202.228 179.471 200.86V200.854C179.471 199.801 178.89 199.213 177.393 198.878L176.183 198.611C175.431 198.44 175.15 198.167 175.15 197.75V197.743C175.15 197.21 175.622 196.861 176.374 196.861C177.167 196.861 177.632 197.285 177.707 197.866L177.714 197.921H179.3L179.293 197.846C179.231 196.595 178.179 195.604 176.374 195.604C174.624 195.604 173.469 196.499 173.469 197.825V197.832C173.469 198.905 174.166 199.582 175.554 199.89L176.757 200.156C177.509 200.327 177.762 200.573 177.762 201.011V201.018C177.762 201.551 177.263 201.886 176.436 201.886C175.574 201.886 175.103 201.517 174.973 200.895L174.959 200.833H173.284L173.291 200.895C173.441 202.241 174.528 203.144 176.429 203.144Z" fill="#5FD788"/>
<path fill-rule="evenodd" clip-rule="evenodd" d="M131.419 154.023C107.645 142.274 94.0732 121.899 100.117 97.4245C107.361 68.089 121.397 104.839 140.488 92.0581C159.58 79.2776 191.376 88.0028 184.608 121.99C178.271 153.807 155.194 165.771 131.419 154.023Z" fill="#5FD788"/>
<path d="M124.826 121.171H155.65V137.895H158.733V111.137C158.731 109.363 158.081 107.663 156.925 106.408C155.769 105.155 154.203 104.449 152.568 104.447H151.027V101.102H152.568C152.977 101.102 153.369 100.926 153.658 100.613C153.947 100.299 154.109 99.8735 154.109 99.43V89.3958C154.109 88.9523 153.947 88.5267 153.658 88.2132C153.369 87.8996 152.977 87.7234 152.568 87.7234H146.403V77.6892C146.403 75.2993 145.228 73.0908 143.321 71.8957C141.413 70.7011 139.063 70.7011 137.156 71.8957C135.249 73.091 134.073 75.2995 134.073 77.6892V87.7234H127.909C127.057 87.7234 126.367 88.4722 126.367 89.3958V99.43C126.367 99.8735 126.53 100.299 126.819 100.613C127.108 100.926 127.5 101.102 127.909 101.102H129.45V104.447H127.909C126.274 104.449 124.707 105.155 123.551 106.408C122.396 107.663 121.746 109.363 121.744 111.137V152.946H124.826V121.171ZM137.156 77.6892C137.156 76.4939 137.743 75.3897 138.697 74.7924C139.651 74.1951 140.826 74.1951 141.779 74.7924C142.733 75.3897 143.321 76.4939 143.321 77.6892V87.7234H137.156V77.6892ZM129.45 91.0681H151.027V97.7576H129.45V91.0681ZM132.532 101.102H147.944V104.447H132.532V101.102ZM127.909 107.792H152.568C153.385 107.793 154.168 108.146 154.746 108.773C155.324 109.4 155.65 110.25 155.65 111.137V117.826H124.826V111.137C124.827 110.25 125.152 109.4 125.73 108.773C126.308 108.146 127.091 107.793 127.909 107.792Z" fill="#F3F4F6"/>
<path d="M182.696 151.126C182.405 149.381 181.488 147.832 180.146 146.82C178.804 145.808 177.147 145.415 175.537 145.727L166.437 147.504L165.346 140.92H165.345C165.273 140.484 165.043 140.096 164.708 139.843C164.372 139.59 163.958 139.491 163.555 139.57L154.454 141.347C154.052 141.425 153.694 141.674 153.461 142.039C153.228 142.402 153.138 142.853 153.21 143.289L153.482 144.935L148.932 145.823H148.932C148.094 145.987 147.538 146.857 147.688 147.765L148.243 151.11L107.483 160.599C105.948 160.956 104.677 162.115 104.089 163.694C103.502 165.273 103.674 167.065 104.549 168.478C105.425 169.892 106.889 170.741 108.458 170.747C108.691 170.747 108.925 170.729 109.156 170.692L150.409 164.17L150.964 167.516H150.963C151.036 167.952 151.265 168.34 151.601 168.593C151.937 168.846 152.351 168.944 152.753 168.866L157.304 167.978L157.577 169.623C157.649 170.06 157.878 170.447 158.214 170.7C158.549 170.953 158.964 171.052 159.367 170.973L168.468 169.196C169.306 169.032 169.862 168.163 169.712 167.254L168.62 160.671L177.722 158.894C179.33 158.579 180.759 157.584 181.692 156.128C182.625 154.671 182.987 152.872 182.697 151.125L182.696 151.126ZM108.711 167.383C107.833 167.521 107.01 166.88 106.853 165.932C106.696 164.984 107.26 164.071 108.128 163.87L148.79 154.405L149.863 160.877L108.711 167.383ZM153.725 165.278L150.996 148.819L154.03 148.226L156.759 164.686L153.725 165.278ZM160.339 167.385L156.518 144.343L162.587 143.159L166.407 166.201L160.339 167.385ZM179.161 154.219C178.696 154.949 177.982 155.447 177.176 155.602L168.075 157.379L166.984 150.795L176.085 149.019H176.085C176.89 148.862 177.719 149.058 178.389 149.564C179.06 150.07 179.519 150.845 179.664 151.719C179.808 152.592 179.627 153.491 179.161 154.219L179.161 154.219Z" fill="#F3F4F6"/>
<path d="M140.238 126.188C139.781 126.188 139.348 126.408 139.056 126.788C137.966 128.204 132.532 135.473 132.532 139.567C132.532 142.554 134.001 145.315 136.385 146.808C138.769 148.302 141.707 148.302 144.091 146.808C146.475 145.315 147.944 142.554 147.944 139.567C147.944 135.473 142.512 128.204 141.421 126.788C141.129 126.408 140.695 126.188 140.238 126.188H140.238ZM144.862 139.567C144.862 141.359 143.981 143.015 142.55 143.912C141.12 144.808 139.357 144.808 137.926 143.912C136.496 143.015 135.615 141.359 135.615 139.567C135.615 137.772 138.034 133.664 140.238 130.541C142.443 133.664 144.862 137.772 144.862 139.567Z" fill="#F3F4F6"/>
<path d="M149.485 124.515H152.568V127.86H149.485V124.515Z" fill="#F3F4F6"/>
<defs>
<filter id="filter0_d_115_14174" x="0.0769043" y="0" width="283.902" height="284" filterUnits="userSpaceOnUse" color-interpolation-filters="sRGB">
<feFlood flood-opacity="0" result="BackgroundImageFix"/>
<feColorMatrix in="SourceAlpha" type="matrix" values="0 0 0 0 0 0 0 0 0 0 0 0 0 0 0 0 0 0 127 0" result="hardAlpha"/>
<feOffset dx="2" dy="2"/>
<feGaussianBlur stdDeviation="2.5"/>
<feComposite in2="hardAlpha" operator="out"/>
<feColorMatrix type="matrix" values="0 0 0 0 0 0 0 0 0 0 0 0 0 0 0 0 0 0 0.15 0"/>
<feBlend mode="normal" in2="BackgroundImageFix" result="effect1_dropShadow_115_14174"/>
<feBlend mode="normal" in="SourceGraphic" in2="effect1_dropShadow_115_14174" result="shape"/>
</filter>
</defs>
</svg>
