<svg width="103" height="101" viewBox="0 0 103 101" fill="none" xmlns="http://www.w3.org/2000/svg">
<path fill-rule="evenodd" clip-rule="evenodd" d="M42.4193 84.0225C18.6446 72.2745 5.07324 51.899 11.1168 27.4245C18.3608 -1.91099 32.3965 34.8386 51.4881 22.0581C70.5797 9.27765 102.376 18.0028 95.6077 51.9904C89.2714 83.8069 66.1941 95.7706 42.4193 84.0225Z" fill="#5FD788"/>
<path d="M35.8261 51.1709H66.6503V67.8946H69.7328V41.1366C69.7307 39.3627 69.0805 37.6627 67.9252 36.4085C66.7693 35.1549 65.2026 34.4494 63.5679 34.4471H62.0267V31.1024H63.5679C63.9766 31.1024 64.3688 30.9262 64.6578 30.6126C64.9467 30.299 65.1091 29.8735 65.1091 29.43V19.3958C65.1091 18.9523 64.9467 18.5267 64.6578 18.2132C64.3688 17.8996 63.9766 17.7234 63.5679 17.7234H57.4031V7.68915C57.4031 5.29928 56.2279 3.0908 54.3206 1.89567C52.4134 0.701118 50.063 0.701118 48.1558 1.89567C46.2486 3.09097 45.0734 5.29947 45.0734 7.68915V17.7234H38.9085C38.0574 17.7234 37.3673 18.4722 37.3673 19.3958V29.43C37.3673 29.8735 37.5297 30.299 37.8186 30.6126C38.1076 30.9262 38.4998 31.1024 38.9085 31.1024H40.4497V34.4471H38.9085C37.2737 34.4494 35.707 35.1549 34.5512 36.4085C33.396 37.6628 32.7458 39.3628 32.7437 41.1366V82.9459H35.8261V51.1709ZM48.1558 7.68915C48.1558 6.49385 48.7434 5.38969 49.697 4.79241C50.6506 4.19514 51.8258 4.19514 52.7794 4.79241C53.733 5.38969 54.3206 6.49389 54.3206 7.68915V17.7234H48.1558V7.68915ZM40.4497 21.0681H62.0267V27.7576H40.4497V21.0681ZM43.5321 31.1024H58.9443V34.4471H43.5321V31.1024ZM38.9085 37.7919H63.5679C64.3853 37.7926 65.1683 38.1458 65.7462 38.7729C66.3241 39.4 66.6496 40.2497 66.6503 41.1366V47.8261H35.826V41.1366C35.8267 40.2496 36.1522 39.4 36.7301 38.7729C37.3081 38.1458 38.0911 37.7926 38.9085 37.7919Z" fill="#F3F4F6"/>
<path d="M93.6964 81.1262C93.4054 79.3807 92.4883 77.8323 91.146 76.8199C89.8043 75.8082 88.1469 75.4148 86.5375 75.7269L77.4367 77.5038L76.3455 70.9203H76.3448C76.2726 70.4836 76.0435 70.0961 75.7077 69.843C75.3719 69.5899 74.9577 69.4914 74.5552 69.5697L65.4538 71.3467C65.052 71.425 64.6942 71.6744 64.461 72.0387C64.2277 72.4023 64.1376 72.8525 64.2098 73.2893L64.4823 74.9348L59.9316 75.8232H59.9323C59.0942 75.9867 58.5376 76.8565 58.6883 77.7651L59.2428 81.1099L18.4826 90.599C16.9483 90.9559 15.6774 92.1153 15.0891 93.6943C14.5015 95.2734 14.6742 97.0652 15.5494 98.4784C16.4246 99.8916 17.8887 100.741 19.4581 100.747C19.6914 100.747 19.9246 100.729 20.1558 100.692L61.4092 94.1698L61.9637 97.5161H61.9631C62.036 97.9521 62.2651 98.3396 62.6009 98.5927C62.9366 98.8458 63.3508 98.9443 63.7533 98.866L68.3041 97.9775L68.5765 99.623C68.6488 100.06 68.8779 100.447 69.2137 100.7C69.5494 100.953 69.9643 101.052 70.3668 100.973L79.4676 99.1959C80.3056 99.0324 80.8622 98.1634 80.7115 97.2541L79.6203 90.6707L88.7217 88.8938C90.3304 88.5795 91.7587 87.5842 92.6917 86.1276C93.6247 84.671 93.9866 82.8717 93.6969 81.1254L93.6964 81.1262ZM19.7112 97.3826C18.8326 97.5215 18.0104 96.8802 17.8535 95.932C17.6959 94.9838 18.2601 94.0715 19.1284 93.8699L59.79 84.4047L60.8634 90.8768L19.7112 97.3826ZM64.7252 95.2779L61.9964 78.8185L65.0301 78.2264L67.7588 94.6858L64.7252 95.2779ZM71.3387 97.3855L67.518 74.343L73.5865 73.159L77.4066 96.2014L71.3387 97.3855ZM90.1608 84.2192C89.6964 84.9494 88.9815 85.4474 88.1764 85.6019L79.075 87.3788L77.9838 80.7954L87.0845 79.0185H87.0852C87.8895 78.8617 88.7186 79.0581 89.3894 79.5643C90.0603 80.0705 90.5192 80.8454 90.6637 81.7189C90.8082 82.5916 90.6272 83.4913 90.1607 84.2192L90.1608 84.2192Z" fill="#F3F4F6"/>
<path d="M51.2383 56.1878C50.7814 56.1878 50.3479 56.408 50.0555 56.7881C48.9657 58.2044 43.5322 65.4731 43.5322 69.5667C43.5322 72.5539 45.0012 75.3147 47.3853 76.808C49.7693 78.3019 52.7073 78.3019 55.0913 76.808C57.4754 75.3148 58.9444 72.5539 58.9444 69.5667C58.9444 65.4731 53.5115 58.2043 52.4211 56.7881C52.1286 56.408 51.6952 56.1878 51.2383 56.1878H51.2383ZM55.8619 69.5668C55.8619 71.3594 54.9805 73.0153 53.5501 73.9119C52.1196 74.8078 50.3569 74.8078 48.9264 73.9119C47.496 73.0152 46.6146 71.3594 46.6146 69.5668C46.6146 67.772 49.0337 63.6642 51.2383 60.5411C53.4428 63.6642 55.8619 67.7719 55.8619 69.5668Z" fill="#F3F4F6"/>
<path d="M60.4854 54.5154H63.5678V57.8601H60.4854V54.5154Z" fill="#F3F4F6"/>
</svg>
