<svg width="111" height="117" viewBox="0 0 111 117" fill="none" xmlns="http://www.w3.org/2000/svg">
<path fill-rule="evenodd" clip-rule="evenodd" d="M38.2124 92.0488C18.0499 74.024 9.80099 50.5314 21.4764 28.5881C35.4706 2.28663 40.2625 41.7259 61.752 34.7427C83.2414 27.7594 111.873 45.1173 97.2288 76.0458C83.5195 104.999 58.375 110.074 38.2124 92.0488Z" fill="#5FD788"/>
<path d="M83.2337 42.8572H39.3493C38.1856 42.8572 37.0688 42.3555 36.2461 41.4626C35.4234 40.5698 34.9609 39.3579 34.9609 38.0954V28.5716C34.9609 27.695 35.6159 26.9843 36.4238 26.9843H86.1594C86.5473 26.9843 86.9195 27.1515 87.1938 27.4491C87.4681 27.7467 87.6222 28.1506 87.6222 28.5716V38.0954C87.6222 39.3581 87.1599 40.5699 86.337 41.4626C85.5142 42.3553 84.3974 42.8572 83.2338 42.8572H83.2337ZM37.8865 30.1588V38.0953C37.8865 38.5162 38.0406 38.9201 38.3149 39.2177C38.5892 39.5153 38.9614 39.6826 39.3493 39.6826H83.2337C83.6216 39.6826 83.9938 39.5153 84.2681 39.2177C84.5424 38.9201 84.6965 38.5162 84.6965 38.0953V30.1588H37.8865Z" fill="#F3F4F6"/>
<path d="M83.2339 100H39.3495C38.8277 99.9986 38.3464 99.6967 38.0859 99.2064C37.6601 98.4127 27.647 79.6436 27.647 66.6658C27.6373 62.8697 28.5868 59.1431 30.3918 55.8912C32.1975 52.6393 34.7894 49.9862 37.8867 48.2212V41.269H40.8124V49.2055C40.8124 49.8404 40.4636 50.4144 39.9262 50.6645C37.1325 52.0995 34.7711 54.3643 33.1157 57.1966C31.4602 60.0289 30.5786 63.3119 30.5727 66.6658C30.5727 77.3724 38.3171 93.142 40.2025 96.8245H82.3817C84.267 93.1418 92.0115 77.3615 92.0115 66.6658C92.005 63.3105 91.1221 60.026 89.4654 57.1937C87.808 54.3614 85.4446 52.0965 82.6495 50.6623C82.116 50.4101 81.7712 49.8375 81.7718 49.2054V41.2689H84.6975V48.2211C87.7948 49.9863 90.3867 52.6393 92.1924 55.8911C93.9974 59.143 94.947 62.8696 94.9371 66.6657C94.9371 79.6433 84.924 98.4118 84.4983 99.2063C84.2378 99.6967 83.7565 99.9986 83.2347 100L83.2339 100Z" fill="#F3F4F6"/>
<path d="M78.8453 92.0635H43.7378C43.1227 92.0635 42.5735 91.6461 42.3625 91.019C42.1287 90.2955 36.4238 73.2015 36.4238 65.0797C36.4395 62.4535 37.293 59.9138 38.8401 57.8937C40.3871 55.8736 42.5317 54.498 44.9081 54.0005C45.0041 53.9786 45.1021 53.968 45.2007 53.9687H77.3826C77.4812 53.968 77.5792 53.9786 77.6752 54.0005C80.0516 54.498 82.1962 55.8734 83.7432 57.8937C85.2903 59.914 86.1438 62.4537 86.1595 65.0797C86.1595 73.2018 80.4545 90.2952 80.2208 91.019C80.0099 91.6461 79.4606 92.0635 78.8455 92.0635H78.8453ZM44.7727 88.8889H77.8105C79.05 85.0396 83.2334 71.559 83.2334 65.0793C83.2197 63.2099 82.6157 61.4022 81.5212 59.9575C80.4274 58.5134 78.9104 57.5198 77.2229 57.1428H45.3636C43.6808 57.5304 42.169 58.5268 41.0758 59.9688C39.9833 61.4108 39.374 63.2128 39.3486 65.0793C39.3486 71.559 43.5319 85.0394 44.7715 88.8889H44.7727Z" fill="#F3F4F6"/>
<path d="M70.0683 92.0635H52.5146C51.7068 92.0635 51.0518 91.3528 51.0518 90.4762V80.9524C51.0518 80.0759 51.7068 79.3651 52.5146 79.3651H70.0683C70.4562 79.3651 70.8285 79.5323 71.1027 79.83C71.377 80.1276 71.5311 80.5315 71.5311 80.9524V90.4762C71.5311 90.8971 71.377 91.3011 71.1027 91.5987C70.8285 91.8963 70.4562 92.0635 70.0683 92.0635ZM53.9774 88.8889H68.6055V82.5397H53.9774V88.8889Z" fill="#F3F4F6"/>
<path d="M61.2917 76.1905C59.7401 76.1905 58.2517 75.5216 57.154 74.3311C56.0569 73.1399 55.4404 71.5249 55.4404 69.8413C55.4404 66.7603 59.4076 61.8063 60.203 60.8446C60.4877 60.5229 60.8809 60.3408 61.2916 60.3408C61.7024 60.3408 62.0955 60.5229 62.3803 60.8446C63.1757 61.8062 67.1428 66.7601 67.1428 69.8413C67.1428 71.5249 66.5264 73.14 65.4293 74.3311C64.3315 75.5216 62.8432 76.1905 61.2916 76.1905H61.2917ZM61.2917 64.3637C59.7394 66.4684 58.3661 68.8301 58.3661 69.8413C58.3661 70.9758 58.9237 72.0238 59.8289 72.5907C60.734 73.1576 61.8494 73.1576 62.7545 72.5907C63.6596 72.0238 64.2173 70.9757 64.2173 69.8413C64.2173 68.857 62.8453 66.4775 61.2917 64.3637Z" fill="#F3F4F6"/>
<path d="M59.8286 74.6031H62.7542V80.9524H59.8286V74.6031Z" fill="#F3F4F6"/>
<path d="M53.9771 19.0476H51.0515C51.0515 18.1555 50.7341 17.7778 50.0171 16.9956C48.8207 15.9468 48.126 14.3673 48.126 12.6984C48.126 11.0295 48.8208 9.45016 50.0171 8.40127C50.7341 7.61896 51.0515 7.24127 51.0515 6.34921C51.0515 5.45714 50.7341 5.07936 50.0171 4.29714C48.8351 3.23634 48.1429 1.66458 48.126 0H51.0516C51.0516 0.892154 51.369 1.26984 52.086 2.05206C53.268 3.11287 53.9603 4.68463 53.9771 6.34921C53.9602 8.01375 53.2679 9.58549 52.086 10.6463C51.369 11.4287 51.0516 11.8063 51.0516 12.6984C51.0516 13.5905 51.369 13.9683 52.086 14.7505C53.268 15.8113 53.9603 17.383 53.9771 19.0476Z" fill="#F3F4F6"/>
<path d="M64.2169 19.0476H61.2913C61.2913 18.1555 60.9739 17.7778 60.2568 16.9956C59.0605 15.9468 58.3657 14.3673 58.3657 12.6984C58.3657 11.0295 59.0606 9.45016 60.2568 8.40127C60.9739 7.61896 61.2913 7.24127 61.2913 6.34921C61.2913 5.45714 60.9739 5.07936 60.2568 4.29714C59.0748 3.23634 58.3826 1.66458 58.3657 0H61.2913C61.2913 0.892154 61.6087 1.26984 62.3258 2.05206C63.5078 3.11287 64.2 4.68463 64.2169 6.34921C64.1999 8.01375 63.5077 9.58549 62.3258 10.6463C61.6087 11.4287 61.2913 11.8063 61.2913 12.6984C61.2913 13.5905 61.6087 13.9683 62.3258 14.7505C63.5078 15.8113 64.2 17.383 64.2169 19.0476Z" fill="#F3F4F6"/>
<path d="M74.4566 19.0476H71.531C71.531 18.1555 71.2136 17.7778 70.4966 16.9956C69.3002 15.9468 68.6055 14.3673 68.6055 12.6984C68.6055 11.0295 69.3003 9.45016 70.4966 8.40127C71.2136 7.61896 71.531 7.24127 71.531 6.34921C71.531 5.45714 71.2136 5.07936 70.4966 4.29714C69.3146 3.23634 68.6224 1.66458 68.6055 0H71.5311C71.5311 0.892154 71.8485 1.26984 72.5655 2.05206C73.7475 3.11287 74.4398 4.68463 74.4566 6.34921C74.4397 8.01375 73.7474 9.58549 72.5655 10.6463C71.8485 11.4287 71.5311 11.8063 71.5311 12.6984C71.5311 13.5905 71.8485 13.9683 72.5655 14.7505C73.7475 15.8113 74.4398 17.383 74.4566 19.0476Z" fill="#F3F4F6"/>
<path d="M36.4238 33.3333H81.771V36.5079H36.4238V33.3333Z" fill="#F3F4F6"/>
</svg>
