<svg width="111" height="113" viewBox="0 0 111 113" fill="none" xmlns="http://www.w3.org/2000/svg">
<path fill-rule="evenodd" clip-rule="evenodd" d="M38.2124 88.0488C18.0499 70.024 9.80099 46.5314 21.4764 24.5881C35.4706 -1.71337 40.2625 37.7259 61.752 30.7427C83.2414 23.7594 111.873 41.1173 97.2288 72.0458C83.5195 100.999 58.375 106.074 38.2124 88.0488Z" fill="#5FD788"/>
<path d="M96.9094 56.8629H93.2954V52.9414H96.9094V49.0198H93.2954V43.1374C93.2954 42.6175 93.105 42.1185 92.7662 41.7509C92.4274 41.3833 91.9676 41.1767 91.4884 41.1767H87.8744V35.2943C87.872 32.6788 87.1815 30.1183 85.8843 27.9142C84.5872 25.71 82.7374 23.9523 80.5521 22.8493L80.7272 22.3416H80.728C83.0843 15.5226 83.0093 7.99474 80.5174 1.23263C80.3085 0.666287 79.8689 0.237358 79.3276 0.0727869C78.7863 -0.0917797 78.2046 0.026393 77.7553 0.392293L73.4185 3.9217C70.3111 6.45054 66.8489 8.41917 63.1638 9.7525C59.4788 11.0865 55.6196 11.7658 51.7345 11.7649C47.0105 11.7641 42.4405 13.59 38.8451 16.9145C35.2489 20.2391 32.8626 24.8452 32.1131 29.9065C29.7438 30.6199 27.6167 32.0643 25.9904 34.0654C24.3649 36.0664 23.3098 38.5367 22.954 41.1766H19.2085C18.2106 41.1766 17.4015 42.0546 17.4015 43.1374V49.0198H13.7875V52.9413H17.4015V56.8629H13.7875C12.7896 56.8629 11.9805 57.7409 11.9805 58.8237V92.1569C11.9829 94.2368 12.7452 96.23 14.0997 97.7005C15.455 99.1702 17.2918 99.9974 19.2085 100H91.4885C93.4052 99.9974 95.2421 99.1702 96.5973 97.7005C97.9517 96.2299 98.714 94.2367 98.7165 92.1569V58.8237C98.7165 58.3037 98.5261 57.8048 98.1873 57.4371C97.8485 57.0695 97.3887 56.8629 96.9095 56.8629L96.9094 56.8629ZM35.4714 33.3335H58.9624V29.412H35.8782C36.6979 25.5133 38.7122 22.0318 41.5929 19.5388C44.4736 17.0449 48.0498 15.6865 51.7346 15.6865C56.0076 15.6874 60.2533 14.9398 64.307 13.4728C68.3607 12.0065 72.169 9.84095 75.587 7.0591L77.9361 5.14735C79.3019 10.3529 79.0946 15.8967 77.3432 20.9649L77.0826 21.7186H77.0835C76.4679 21.6197 75.8476 21.5689 75.2256 21.5689H66.1906V25.4905H75.2256C77.6208 25.4931 79.9174 26.5269 81.6115 28.3651C83.3055 30.2033 84.2582 32.6954 84.2606 35.2944V41.1767H26.6183C27.0378 38.9638 28.147 36.9759 29.7596 35.5465C31.373 34.1179 33.3897 33.3362 35.4718 33.3336L35.4714 33.3335ZM21.0154 52.9414H37.2784V49.0198H21.0154V45.0982H89.6814V49.0198H84.2604V52.9414H89.6814V56.8629H21.0154V52.9414ZM95.1024 92.157C95.1016 93.1969 94.72 94.193 94.0424 94.9283C93.3648 95.6635 92.4468 96.0776 91.4885 96.0785H19.2084C18.2501 96.0776 17.3321 95.6636 16.6545 94.9283C15.9769 94.193 15.5953 93.1968 15.5945 92.157V60.7845H95.1025L95.1024 92.157Z" fill="#F3F4F6"/>
<path d="M40.8921 49.0198H80.6461V52.9413H40.8921V49.0198Z" fill="#F3F4F6"/>
<path d="M55.348 88.2354C57.744 88.2354 60.0421 87.2025 61.7371 85.3644C63.4312 83.5253 64.383 81.0314 64.383 78.4315C64.383 75.8316 63.4311 73.338 61.7371 71.4987C60.0423 69.6604 57.744 68.6276 55.348 68.6276C52.952 68.6276 50.6539 69.6605 48.9589 71.4987C47.2648 73.3378 46.313 75.8316 46.313 78.4315C46.3154 81.0305 47.2681 83.5226 48.9622 85.3608C50.6562 87.199 52.9528 88.2327 55.348 88.2354ZM55.348 72.5492C56.7855 72.5492 58.1651 73.1689 59.1813 74.2719C60.1976 75.3748 60.7689 76.8718 60.7689 78.4314C60.7689 79.9911 60.1978 81.4882 59.1813 82.591C58.1649 83.6937 56.7853 84.3136 55.348 84.3136C53.9107 84.3136 52.5309 83.6939 51.5147 82.591C50.4984 81.488 49.9271 79.9911 49.9271 78.4314C49.9287 76.8716 50.5006 75.3764 51.5171 74.2743C52.5327 73.1714 53.9106 72.5508 55.3481 72.549L55.348 72.5492Z" fill="#F3F4F6"/>
</svg>
