<svg width="285" height="284" viewBox="0 0 285 284" fill="none" xmlns="http://www.w3.org/2000/svg">
<g filter="url(#filter0_d_115_14166)">
<path d="M3.979 3H257.881C268.927 3 277.881 11.9543 277.881 23V277H23.979C12.9333 277 3.979 268.046 3.979 257V3Z" fill="#374151"/>
</g>
<path fill-rule="evenodd" clip-rule="evenodd" d="M124.212 158.049C104.05 140.024 95.801 116.531 107.476 94.5881C121.471 68.2866 126.262 107.726 147.752 100.743C169.241 93.7594 197.873 111.117 183.229 142.046C169.519 170.999 144.375 176.074 124.212 158.049Z" fill="#5FD788"/>
<path d="M182.909 126.863H179.295V122.941H182.909V119.02H179.295V113.137C179.295 112.617 179.105 112.119 178.766 111.751C178.427 111.383 177.968 111.177 177.488 111.177H173.874V105.294C173.872 102.679 173.181 100.118 171.884 97.9142C170.587 95.71 168.737 93.9523 166.552 92.8493L166.727 92.3416H166.728C169.084 85.5226 169.009 77.9947 166.517 71.2326C166.308 70.6663 165.869 70.2374 165.328 70.0728C164.786 69.9082 164.205 70.0264 163.755 70.3923L159.418 73.9217C156.311 76.4505 152.849 78.4192 149.164 79.7525C145.479 81.0865 141.62 81.7658 137.734 81.7649C133.01 81.7641 128.441 83.59 124.845 86.9145C121.249 90.2391 118.863 94.8452 118.113 99.9065C115.744 100.62 113.617 102.064 111.99 104.065C110.365 106.066 109.31 108.537 108.954 111.177H105.208C104.211 111.177 103.401 112.055 103.401 113.137V119.02H99.7875V122.941H103.401V126.863H99.7875C98.7896 126.863 97.9805 127.741 97.9805 128.824V162.157C97.9829 164.237 98.7452 166.23 100.1 167.7C101.455 169.17 103.292 169.997 105.208 170H177.489C179.405 169.997 181.242 169.17 182.597 167.7C183.952 166.23 184.714 164.237 184.717 162.157V128.824C184.717 128.304 184.526 127.805 184.187 127.437C183.849 127.069 183.389 126.863 182.91 126.863L182.909 126.863ZM121.471 103.334H144.962V99.412H121.878C122.698 95.5133 124.712 92.0318 127.593 89.5388C130.474 87.0449 134.05 85.6865 137.735 85.6865C142.008 85.6874 146.253 84.9398 150.307 83.4728C154.361 82.0065 158.169 79.8409 161.587 77.0591L163.936 75.1474C165.302 80.3529 165.095 85.8967 163.343 90.9649L163.083 91.7186H163.083C162.468 91.6197 161.848 91.5689 161.226 91.5689H152.191V95.4905H161.226C163.621 95.4931 165.917 96.5269 167.611 98.3651C169.306 100.203 170.258 102.695 170.261 105.294V111.177H112.618C113.038 108.964 114.147 106.976 115.76 105.546C117.373 104.118 119.39 103.336 121.472 103.334L121.471 103.334ZM107.015 122.941H123.278V119.02H107.015V115.098H175.681V119.02H170.26V122.941H175.681V126.863H107.015V122.941ZM181.102 162.157C181.102 163.197 180.72 164.193 180.042 164.928C179.365 165.664 178.447 166.078 177.488 166.078H105.208C104.25 166.078 103.332 165.664 102.654 164.928C101.977 164.193 101.595 163.197 101.594 162.157V130.784H181.103L181.102 162.157Z" fill="#F3F4F6"/>
<path d="M126.892 119.02H166.646V122.941H126.892V119.02Z" fill="#F3F4F6"/>
<path d="M141.348 158.235C143.744 158.235 146.042 157.203 147.737 155.364C149.431 153.525 150.383 151.031 150.383 148.432C150.383 145.832 149.431 143.338 147.737 141.499C146.042 139.66 143.744 138.628 141.348 138.628C138.952 138.628 136.654 139.661 134.959 141.499C133.265 143.338 132.313 145.832 132.313 148.432C132.315 151.031 133.268 153.523 134.962 155.361C136.656 157.199 138.953 158.233 141.348 158.235ZM141.348 142.549C142.786 142.549 144.165 143.169 145.181 144.272C146.198 145.375 146.769 146.872 146.769 148.431C146.769 149.991 146.198 151.488 145.181 152.591C144.165 153.694 142.785 154.314 141.348 154.314C139.911 154.314 138.531 153.694 137.515 152.591C136.498 151.488 135.927 149.991 135.927 148.431C135.929 146.872 136.501 145.376 137.517 144.274C138.533 143.171 139.911 142.551 141.348 142.549L141.348 142.549Z" fill="#F3F4F6"/>
<path d="M86.0732 204H87.8301V197.062H87.8643L92.6836 204H94.2559V194.136H92.5059V201.047H92.4648L87.6592 194.136H86.0732V204ZM97.79 204.123C98.7471 204.123 99.5537 203.645 99.9707 202.886H100.012V204H101.714V199.017C101.714 197.561 100.545 196.604 98.7334 196.604C96.8945 196.604 95.7803 197.567 95.6777 198.853L95.6709 198.935H97.25L97.2637 198.873C97.373 198.34 97.8652 197.964 98.6719 197.964C99.5332 197.964 100.012 198.408 100.012 199.14V199.639L98.1182 199.755C96.3613 199.864 95.3633 200.637 95.3633 201.922V201.936C95.3633 203.228 96.3408 204.123 97.79 204.123ZM97.0586 201.867V201.86C97.0586 201.286 97.5166 200.924 98.3574 200.869L100.012 200.767V201.313C100.012 202.175 99.2734 202.824 98.2959 202.824C97.5508 202.824 97.0586 202.462 97.0586 201.867ZM105.781 204.144C106.123 204.144 106.424 204.109 106.622 204.082V202.804C106.506 202.811 106.376 202.831 106.212 202.831C105.59 202.831 105.275 202.605 105.275 201.895V198.066H106.622V196.754H105.275V194.915H103.546V196.754H102.521V198.066H103.546V202.038C103.546 203.528 104.264 204.144 105.781 204.144ZM110.259 204.144C111.353 204.144 112.098 203.638 112.474 202.865H112.508V204H114.21V196.754H112.508V200.951C112.508 202.004 111.886 202.708 110.908 202.708C109.938 202.708 109.459 202.127 109.459 201.102V196.754H107.757V201.437C107.757 203.118 108.666 204.144 110.259 204.144ZM115.611 204H117.313V199.796C117.313 198.723 117.895 198.114 118.858 198.114C119.146 198.114 119.405 198.155 119.549 198.21V196.672C119.419 196.638 119.221 196.604 119.009 196.604C118.175 196.604 117.573 197.13 117.348 198.005H117.313V196.754H115.611V204ZM122.399 204.123C123.356 204.123 124.163 203.645 124.58 202.886H124.621V204H126.323V199.017C126.323 197.561 125.154 196.604 123.343 196.604C121.504 196.604 120.39 197.567 120.287 198.853L120.28 198.935H121.859L121.873 198.873C121.982 198.34 122.475 197.964 123.281 197.964C124.143 197.964 124.621 198.408 124.621 199.14V199.639L122.728 199.755C120.971 199.864 119.973 200.637 119.973 201.922V201.936C119.973 203.228 120.95 204.123 122.399 204.123ZM121.668 201.867V201.86C121.668 201.286 122.126 200.924 122.967 200.869L124.621 200.767V201.313C124.621 202.175 123.883 202.824 122.905 202.824C122.16 202.824 121.668 202.462 121.668 201.867ZM127.745 204H129.447V194.136H127.745V204ZM136.898 204.144C138.73 204.144 139.954 202.995 140.084 201.484L140.091 201.437H138.484L138.471 201.498C138.313 202.257 137.767 202.77 136.905 202.77C135.832 202.77 135.135 201.895 135.135 200.384V200.377C135.135 198.894 135.825 197.984 136.898 197.984C137.801 197.984 138.32 198.552 138.464 199.256L138.478 199.317H140.084L140.077 199.263C139.975 197.813 138.785 196.604 136.878 196.604C134.766 196.604 133.398 198.053 133.398 200.363V200.37C133.398 202.694 134.745 204.144 136.898 204.144ZM144.315 204.144C146.441 204.144 147.822 202.729 147.822 200.377V200.363C147.822 198.025 146.421 196.604 144.309 196.604C142.203 196.604 140.809 198.039 140.809 200.363V200.377C140.809 202.722 142.183 204.144 144.315 204.144ZM144.322 202.77C143.235 202.77 142.545 201.901 142.545 200.377V200.363C142.545 198.859 143.249 197.984 144.309 197.984C145.389 197.984 146.086 198.853 146.086 200.363V200.377C146.086 201.895 145.396 202.77 144.322 202.77ZM151.746 204.144C153.523 204.144 154.788 203.228 154.788 201.86V201.854C154.788 200.801 154.207 200.213 152.71 199.878L151.5 199.611C150.748 199.44 150.468 199.167 150.468 198.75V198.743C150.468 198.21 150.939 197.861 151.691 197.861C152.484 197.861 152.949 198.285 153.024 198.866L153.031 198.921H154.617L154.61 198.846C154.549 197.595 153.496 196.604 151.691 196.604C149.941 196.604 148.786 197.499 148.786 198.825V198.832C148.786 199.905 149.483 200.582 150.871 200.89L152.074 201.156C152.826 201.327 153.079 201.573 153.079 202.011V202.018C153.079 202.551 152.58 202.886 151.753 202.886C150.892 202.886 150.42 202.517 150.29 201.895L150.276 201.833H148.602L148.608 201.895C148.759 203.241 149.846 204.144 151.746 204.144ZM155.875 204H157.577V199.563C157.577 198.682 158.151 198.039 158.972 198.039C159.765 198.039 160.257 198.545 160.257 199.358V204H161.911V199.522C161.911 198.647 162.472 198.039 163.292 198.039C164.126 198.039 164.591 198.552 164.591 199.447V204H166.293V199.023C166.293 197.574 165.356 196.604 163.928 196.604C162.882 196.604 162.021 197.164 161.672 198.066H161.631C161.364 197.137 160.633 196.604 159.621 196.604C158.664 196.604 157.919 197.123 157.611 197.916H157.577V196.754H155.875V204ZM170.846 204.144C172.739 204.144 173.806 203.022 174.031 201.908L174.052 201.833H172.459L172.445 201.881C172.281 202.366 171.728 202.817 170.88 202.817C169.772 202.817 169.075 202.065 169.048 200.794H174.12V200.247C174.12 198.06 172.835 196.604 170.764 196.604C168.692 196.604 167.359 198.107 167.359 200.391V200.397C167.359 202.701 168.672 204.144 170.846 204.144ZM170.784 197.937C171.687 197.937 172.343 198.511 172.466 199.659H169.068C169.205 198.545 169.882 197.937 170.784 197.937ZM177.914 204.144C178.256 204.144 178.557 204.109 178.755 204.082V202.804C178.639 202.811 178.509 202.831 178.345 202.831C177.723 202.831 177.408 202.605 177.408 201.895V198.066H178.755V196.754H177.408V194.915H175.679V196.754H174.653V198.066H175.679V202.038C175.679 203.528 176.396 204.144 177.914 204.144ZM180.826 195.715C181.359 195.715 181.77 195.291 181.77 194.785C181.77 194.266 181.359 193.849 180.826 193.849C180.293 193.849 179.876 194.266 179.876 194.785C179.876 195.291 180.293 195.715 180.826 195.715ZM179.972 204H181.674V196.754H179.972V204ZM186.322 204.144C188.154 204.144 189.378 202.995 189.508 201.484L189.515 201.437H187.908L187.895 201.498C187.737 202.257 187.19 202.77 186.329 202.77C185.256 202.77 184.559 201.895 184.559 200.384V200.377C184.559 198.894 185.249 197.984 186.322 197.984C187.225 197.984 187.744 198.552 187.888 199.256L187.901 199.317H189.508L189.501 199.263C189.398 197.813 188.209 196.604 186.302 196.604C184.189 196.604 182.822 198.053 182.822 200.363V200.37C182.822 202.694 184.169 204.144 186.322 204.144ZM193.363 204.144C195.141 204.144 196.405 203.228 196.405 201.86V201.854C196.405 200.801 195.824 200.213 194.327 199.878L193.117 199.611C192.365 199.44 192.085 199.167 192.085 198.75V198.743C192.085 198.21 192.557 197.861 193.309 197.861C194.102 197.861 194.566 198.285 194.642 198.866L194.648 198.921H196.234L196.228 198.846C196.166 197.595 195.113 196.604 193.309 196.604C191.559 196.604 190.403 197.499 190.403 198.825V198.832C190.403 199.905 191.101 200.582 192.488 200.89L193.691 201.156C194.443 201.327 194.696 201.573 194.696 202.011V202.018C194.696 202.551 194.197 202.886 193.37 202.886C192.509 202.886 192.037 202.517 191.907 201.895L191.894 201.833H190.219L190.226 201.895C190.376 203.241 191.463 204.144 193.363 204.144Z" fill="#5FD788"/>
<defs>
<filter id="filter0_d_115_14166" x="0.979004" y="0" width="283.902" height="284" filterUnits="userSpaceOnUse" color-interpolation-filters="sRGB">
<feFlood flood-opacity="0" result="BackgroundImageFix"/>
<feColorMatrix in="SourceAlpha" type="matrix" values="0 0 0 0 0 0 0 0 0 0 0 0 0 0 0 0 0 0 127 0" result="hardAlpha"/>
<feOffset dx="2" dy="2"/>
<feGaussianBlur stdDeviation="2.5"/>
<feComposite in2="hardAlpha" operator="out"/>
<feColorMatrix type="matrix" values="0 0 0 0 0 0 0 0 0 0 0 0 0 0 0 0 0 0 0.15 0"/>
<feBlend mode="normal" in2="BackgroundImageFix" result="effect1_dropShadow_115_14166"/>
<feBlend mode="normal" in="SourceGraphic" in2="effect1_dropShadow_115_14166" result="shape"/>
</filter>
</defs>
</svg>
