<svg width="26" height="16" viewBox="0 0 26 16" fill="none" xmlns="http://www.w3.org/2000/svg">
<path d="M0.711818 1.42364C0.318692 1.42364 0 1.10494 0 0.711818C0 0.318692 0.318692 0 0.711818 0H24.9136C25.3068 0 25.6255 0.318692 25.6255 0.711818C25.6255 1.10494 25.3068 1.42364 24.9136 1.42364H0.711818ZM0.711818 8.54182C0.318692 8.54182 0 8.22313 0 7.83C0 7.43687 0.318692 7.11818 0.711818 7.11818H24.9136C25.3068 7.11818 25.6255 7.43687 25.6255 7.83C25.6255 8.22313 25.3068 8.54182 24.9136 8.54182H0.711818ZM0.711818 15.66C0.318692 15.66 0 15.3413 0 14.9482C0 14.5551 0.318692 14.2364 0.711818 14.2364H24.9136C25.3068 14.2364 25.6255 14.5551 25.6255 14.9482C25.6255 15.3413 25.3068 15.66 24.9136 15.66H0.711818Z" fill="black"/>
</svg>
